<mxfile host="Electron" modified="2023-05-09T21:40:25.926Z" agent="Mozilla/5.0 (Windows NT 10.0; Win64; x64) AppleWebKit/537.36 (KHTML, like Gecko) draw.io/21.2.1 Chrome/112.0.5615.87 Electron/24.1.2 Safari/537.36" etag="yEDSoZAmJOP8brsFBlBD" version="21.2.1" type="device">
  <diagram name="Stránka-1" id="KKVJJq4Ara_fn_2HUhWH">
    <mxGraphModel dx="1036" dy="606" grid="1" gridSize="10" guides="1" tooltips="1" connect="1" arrows="1" fold="1" page="1" pageScale="1" pageWidth="827" pageHeight="1169" math="0" shadow="0">
      <root>
        <mxCell id="0" />
        <mxCell id="1" parent="0" />
        <mxCell id="PVitXxLFdg8eG4JuZtEn-12" value="" style="rounded=0;whiteSpace=wrap;html=1;strokeColor=#B3B3B3;strokeWidth=0.1;" parent="1" vertex="1">
          <mxGeometry x="560" y="86" width="130" height="96" as="geometry" />
        </mxCell>
        <mxCell id="PVitXxLFdg8eG4JuZtEn-11" value="" style="rounded=0;whiteSpace=wrap;html=1;strokeColor=#B3B3B3;strokeWidth=0.1;" parent="1" vertex="1">
          <mxGeometry x="181" y="86" width="130" height="96" as="geometry" />
        </mxCell>
        <mxCell id="PVitXxLFdg8eG4JuZtEn-3" value="&lt;div style=&quot;text-align: justify; font-size: 9px;&quot;&gt;&lt;span style=&quot;background-color: initial;&quot;&gt;Tento text je pouze ukázkový.&amp;nbsp;&lt;/span&gt;&lt;span style=&quot;background-color: initial;&quot;&gt;Není zde &lt;font color=&quot;#ffffff&quot;&gt;uvedena&lt;/font&gt;&lt;/span&gt;&lt;/div&gt;&lt;div style=&quot;text-align: justify; font-size: 9px;&quot;&gt;&lt;span style=&quot;background-color: initial;&quot;&gt;slouží&amp;nbsp;&lt;/span&gt;&lt;span style=&quot;background-color: initial;&quot;&gt;pouze pro demonstraci.&amp;nbsp;&lt;/span&gt;&lt;span style=&quot;background-color: initial;&quot;&gt;Tento text je pouze ukázkový. Není zde uvedena žádná důležitá informace, slouží pouze pro demonstraci.&lt;/span&gt;&lt;/div&gt;" style="text;html=1;strokeColor=none;fillColor=none;align=right;verticalAlign=middle;whiteSpace=wrap;rounded=0;fontFamily=Times New Roman;fontSize=10;" parent="1" vertex="1">
          <mxGeometry x="182" y="119" width="100" height="30" as="geometry" />
        </mxCell>
        <mxCell id="PVitXxLFdg8eG4JuZtEn-4" value="uvedena&lt;font color=&quot;#ffffff&quot;&gt; &lt;/font&gt;žádná důležitá informace," style="text;html=1;strokeColor=none;fillColor=none;align=left;verticalAlign=middle;whiteSpace=wrap;rounded=0;fontSize=9;fontFamily=Times New Roman;" parent="1" vertex="1">
          <mxGeometry x="180" y="97" width="132" height="30" as="geometry" />
        </mxCell>
        <mxCell id="PVitXxLFdg8eG4JuZtEn-10" value="&lt;div style=&quot;text-align: justify;&quot;&gt;&lt;span style=&quot;background-color: initial;&quot;&gt;Tento text je pouze ukázkový. Není zde uvedena žádná důležitá in- formace, slouží pouze pro demonstraci. Tento text je pouze ukázkový. Není zde uvedena žádná důležitá informace, slouží pouze pro demonstraci.&lt;/span&gt;&lt;/div&gt;" style="rounded=0;whiteSpace=wrap;html=1;strokeColor=none;fontFamily=Times New Roman;fontSize=9;fillColor=none;" parent="1" vertex="1">
          <mxGeometry x="560" y="86" width="100" height="95" as="geometry" />
        </mxCell>
        <mxCell id="PVitXxLFdg8eG4JuZtEn-15" value="" style="rounded=0;whiteSpace=wrap;html=1;strokeColor=#B3B3B3;strokeWidth=0.1;" parent="1" vertex="1">
          <mxGeometry x="371" y="86" width="130" height="96" as="geometry" />
        </mxCell>
        <mxCell id="PVitXxLFdg8eG4JuZtEn-16" value="&lt;div style=&quot;text-align: justify; font-size: 9px;&quot;&gt;&lt;span style=&quot;background-color: initial;&quot;&gt;Tento text je pouze ukázkový.&amp;nbsp;&lt;/span&gt;&lt;span style=&quot;background-color: initial;&quot;&gt;Není zde &lt;font color=&quot;#ffffff&quot;&gt;uvedena&lt;/font&gt;&lt;/span&gt;&lt;/div&gt;&lt;div style=&quot;text-align: justify; font-size: 9px;&quot;&gt;&lt;span style=&quot;background-color: initial;&quot;&gt;slouží&amp;nbsp;&lt;/span&gt;&lt;span style=&quot;background-color: initial;&quot;&gt;pouze pro demonstraci.&amp;nbsp;&lt;/span&gt;&lt;span style=&quot;background-color: initial;&quot;&gt;Tento text je pouze ukázkový. Není zde uvedena žádná důležitá informace, slouží pouze pro demonstraci.&lt;/span&gt;&lt;/div&gt;" style="text;html=1;strokeColor=none;fillColor=none;align=right;verticalAlign=middle;whiteSpace=wrap;rounded=0;fontFamily=Times New Roman;fontSize=10;" parent="1" vertex="1">
          <mxGeometry x="372" y="119" width="100" height="30" as="geometry" />
        </mxCell>
        <mxCell id="PVitXxLFdg8eG4JuZtEn-17" value="uvedena&lt;font color=&quot;#ffffff&quot;&gt; &lt;/font&gt;žádná důležitá informace," style="text;html=1;strokeColor=none;fillColor=none;align=left;verticalAlign=middle;whiteSpace=wrap;rounded=0;fontSize=9;fontFamily=Times New Roman;" parent="1" vertex="1">
          <mxGeometry x="370" y="97" width="132" height="30" as="geometry" />
        </mxCell>
        <mxCell id="PVitXxLFdg8eG4JuZtEn-18" value="" style="shape=flexArrow;endArrow=classic;html=1;rounded=0;width=5.2;endSize=4.4;endWidth=9.52;" parent="1" edge="1">
          <mxGeometry width="50" height="50" relative="1" as="geometry">
            <mxPoint x="320" y="133.8" as="sourcePoint" />
            <mxPoint x="364" y="133.96" as="targetPoint" />
          </mxGeometry>
        </mxCell>
        <mxCell id="PVitXxLFdg8eG4JuZtEn-19" value="" style="shape=flexArrow;endArrow=classic;html=1;rounded=0;width=5.2;endSize=4.4;endWidth=9.52;" parent="1" edge="1">
          <mxGeometry width="50" height="50" relative="1" as="geometry">
            <mxPoint x="510" y="133.8" as="sourcePoint" />
            <mxPoint x="554" y="133.96" as="targetPoint" />
          </mxGeometry>
        </mxCell>
        <mxCell id="PVitXxLFdg8eG4JuZtEn-20" value="" style="endArrow=none;html=1;rounded=0;strokeColor=#CC0000;" parent="1" edge="1">
          <mxGeometry width="50" height="50" relative="1" as="geometry">
            <mxPoint x="472" y="132" as="sourcePoint" />
            <mxPoint x="472" y="92" as="targetPoint" />
          </mxGeometry>
        </mxCell>
        <mxCell id="PVitXxLFdg8eG4JuZtEn-21" value="" style="endArrow=none;html=1;rounded=0;strokeWidth=10;strokeColor=#CC0000;opacity=50;" parent="1" edge="1">
          <mxGeometry width="50" height="50" relative="1" as="geometry">
            <mxPoint x="472" y="111.86" as="sourcePoint" />
            <mxPoint x="498" y="111.86" as="targetPoint" />
          </mxGeometry>
        </mxCell>
      </root>
    </mxGraphModel>
  </diagram>
</mxfile>
